<svg xmlns="http://www.w3.org/2000/svg" viewBox="0 0 142 36"><defs><style>.cls-1{fill:#f05e59;}.cls-2,.cls-3{fill:#181819;}.cls-3{fill-rule:evenodd;}.cls-4{fill:#fff;}.cls-5{fill:none;stroke:#fff;stroke-linejoin:round;stroke-width:0.75px;}.cls-6{fill:#455ca8;}</style></defs><title>03 Get Hacking Colour Tertiary Logo With Tagline Colour On White</title><g id="_03_Get_Hacking_Tertiary_Logo_With_Tagline_Colour_On_Light" data-name="03 Get Hacking Tertiary Logo With Tagline Colour On Light"><g id="Get_Hacking_icon" data-name="Get Hacking icon"><circle id="Logo_Base" data-name="Logo Base" class="cls-1" cx="18.18" cy="18" r="14"/><g id="Head"><circle id="Shoulder" class="cls-2" cx="25.63" cy="19.28" r="1"/><circle id="Shoulder-2" data-name="Shoulder" class="cls-2" cx="10.73" cy="19.28" r="1"/><g id="Face"><path class="cls-3" d="M22.49,24.87H13.88a3.46,3.46,0,0,1-3.37-4.21l1.62-7.39a2.75,2.75,0,0,1,2.68-2.15h6.76a2.75,2.75,0,0,1,2.68,2.16l1.61,7.39A3.45,3.45,0,0,1,22.49,24.87Z"/><circle id="White_Eye_Ball" data-name="White Eye Ball" class="cls-4" cx="18.19" cy="15.59" r="2.86"/><circle id="Eye" class="cls-2" cx="18.19" cy="16.25" r="0.72"/></g><g id="Alarm"><path id="Alarm-2" data-name="Alarm" class="cls-4" d="M18.19,8.07h0a.94.94,0,0,1,.94.94v1.18a0,0,0,0,1,0,0H17.25a0,0,0,0,1,0,0V9A.94.94,0,0,1,18.19,8.07Z"/><g id="Stripes"><line id="_04" data-name="04" class="cls-5" x1="18.11" y1="7.47" x2="18.11" y2="6.5"/><line id="_03" data-name="03" class="cls-5" x1="17.17" y1="7.77" x2="16.61" y2="6.98"/><line id="_02" data-name="02" class="cls-5" x1="16.44" y1="8.66" x2="15.56" y2="8.25"/><line id="_01" data-name="01" class="cls-5" x1="16.29" y1="9.87" x2="15.32" y2="9.87"/><line id="_03-2" data-name="03" class="cls-5" x1="19.2" y1="7.77" x2="19.76" y2="6.98"/><line id="_02-2" data-name="02" class="cls-5" x1="19.93" y1="8.66" x2="20.81" y2="8.25"/><line id="_01-2" data-name="01" class="cls-5" x1="20.08" y1="9.87" x2="21.05" y2="9.87"/></g></g></g><g id="Book"><g id="Red"><path id="Base_Bottom" data-name="Base Bottom" class="cls-4" d="M24,27.29l-.51.9h-5V27.9s0-.62.58-.62Z"/><path id="Base" class="cls-4" d="M23.93,26.9H19.12a.69.69,0,0,0-.69.33s0,0,0,0V21.8a1.37,1.37,0,0,1,.45-1.13,2.13,2.13,0,0,1,1.28-.33h3.79Z"/></g><g id="Blue"><path id="Base_Bottom-2" data-name="Base Bottom" class="cls-4" d="M12.41,27.29l.51.9h5V27.9a.6.6,0,0,0-.59-.62Z"/><path id="Base-2" data-name="Base" class="cls-4" d="M12.42,26.9h4.81c.47,0,.64.21.69.33s0,0,0,0V21.8a1.37,1.37,0,0,0-.45-1.13,2.14,2.14,0,0,0-1.29-.33H12.42Z"/></g></g><g id="Rt_Arm" data-name="Rt Arm"><path id="Hand" class="cls-2" d="M11.35,24.29c-1.37-.06-2.43-.76-2.43-2.14a2.58,2.58,0,0,1,2-2.5l-.06-.58a3.43,3.43,0,0,0,.68,6.8l.53,0,1.54.63,1.53-.65.62-1.54-.65-1.54-.76.78.33.76-.32.78-.76.32-.77-.31-.37-.8V22.59l-.42.18-.65,1.52"/></g><g id="Rt_Arm-2" data-name="Rt Arm"><path id="Hand-2" data-name="Hand" class="cls-2" d="M25,24.29c1.37-.06,2.42-.76,2.42-2.14a2.58,2.58,0,0,0-1.95-2.5l.06-.58a3.43,3.43,0,0,1-.68,6.8h-.93V24.29H25"/><polygon id="Screw" class="cls-2" points="23.5 25.26 21.67 25.26 21.67 25.16 21.06 25.16 20.87 25.22 20.1 25.08 20.1 24.97 20.87 24.82 21.06 24.89 21.67 24.89 21.67 24.75 23.5 24.75 23.5 25.26"/><rect class="cls-2" x="23.5" y="24.59" width="0.44" height="0.88"/></g></g><path class="cls-1" d="M40.86,20.78a4.57,4.57,0,0,1-1.9-.36,2.93,2.93,0,0,1-1.23-1,4.67,4.67,0,0,1-.65-1.55,8.62,8.62,0,0,1-.2-2V11a8.33,8.33,0,0,1,.22-2,4.62,4.62,0,0,1,.73-1.55,3.22,3.22,0,0,1,1.37-1,5.68,5.68,0,0,1,2.09-.35A6.38,6.38,0,0,1,43,6.29a3.73,3.73,0,0,1,1.22.57,2.85,2.85,0,0,1,.79.9,3.91,3.91,0,0,1,.44,1.15,6.31,6.31,0,0,1,.13,1.35v1H42.16V9.91c0-.16,0-.29,0-.39a2,2,0,0,0,0-.37A1.11,1.11,0,0,0,42,8.81a.78.78,0,0,0-.25-.22.8.8,0,0,0-.39-.09.82.82,0,0,0-.48.13.72.72,0,0,0-.27.36,2.93,2.93,0,0,0-.11.45c0,.14,0,.3,0,.49v7a2.49,2.49,0,0,0,0,.49,2.59,2.59,0,0,0,.14.45.8.8,0,0,0,.79.49.82.82,0,0,0,.61-.24,1.11,1.11,0,0,0,.33-.54,2.39,2.39,0,0,0,.08-.66V15.05H41.31v-2h4.28v7.5H43.26l-.17-1A2.27,2.27,0,0,1,40.86,20.78Z"/><path class="cls-1" d="M48,20.55V6.31h6.67V8.64H51.45v3.18h2.37v2.43H51.45v4h3.22v2.33Z"/><path class="cls-1" d="M57.77,20.55V8.88H55.69V6.31h7.64V8.88H61.26V20.55Z"/><path class="cls-6" d="M70.21,20.55V6.31h3.48v5.63h1.78V6.31H79V20.55H75.47V14.44H73.69v6.11Z"/><path class="cls-6" d="M80.91,20.55,83.49,6.31h4.06l2.56,14.24H86.92l-.44-2.84H84.63l-.43,2.84Zm4-4.85h1.28l-.64-5.32Z"/><path class="cls-6" d="M96.22,20.78a5.82,5.82,0,0,1-2.08-.33,3,3,0,0,1-1.37-.95A4.15,4.15,0,0,1,92,18a7.86,7.86,0,0,1-.23-2V10.86a7.94,7.94,0,0,1,.23-2,4.15,4.15,0,0,1,.73-1.49,3.15,3.15,0,0,1,1.37-1,6.06,6.06,0,0,1,2.08-.32,6.69,6.69,0,0,1,1.71.2,3.73,3.73,0,0,1,1.22.56,3,3,0,0,1,.78.89,3.75,3.75,0,0,1,.42,1.13,6.84,6.84,0,0,1,.13,1.34v1.28H97.05V9.91c0-.2,0-.37,0-.49A2.07,2.07,0,0,0,96.94,9a.66.66,0,0,0-.25-.37,1,1,0,0,0-.87,0,.78.78,0,0,0-.25.22,1,1,0,0,0-.13.35,1.42,1.42,0,0,0-.06.38c0,.11,0,.23,0,.38v7c0,.14,0,.27,0,.39a1.88,1.88,0,0,0,.06.37,1,1,0,0,0,.14.35.6.6,0,0,0,.25.22.8.8,0,0,0,.39.09.84.84,0,0,0,.47-.12.69.69,0,0,0,.25-.38,2.07,2.07,0,0,0,.09-.43c0-.12,0-.29,0-.49V15.3h3.43v1.27a7.06,7.06,0,0,1-.13,1.36,3.92,3.92,0,0,1-.42,1.14,2.88,2.88,0,0,1-.78.91,3.74,3.74,0,0,1-1.22.58A6.23,6.23,0,0,1,96.22,20.78Z"/><path class="cls-6" d="M102.57,20.55V6.31h3.49v5.55l2.16-5.55h3.43l-2.59,6.47,2.62,7.77H108.1l-1.86-6.17-.18.23v5.94Z"/><path class="cls-6" d="M113.38,20.55V6.31h3.48V20.55Z"/><path class="cls-6" d="M119.37,20.55V6.31h2.47l2.61,6.1V6.31h2.88V20.55H125l-2.59-6.7v6.7Z"/><path class="cls-6" d="M133.65,20.78a4.57,4.57,0,0,1-1.9-.36,2.93,2.93,0,0,1-1.23-1,4.67,4.67,0,0,1-.65-1.55,8.59,8.59,0,0,1-.21-2V11a8.3,8.3,0,0,1,.23-2,4.44,4.44,0,0,1,.73-1.55,3.16,3.16,0,0,1,1.37-1,5.68,5.68,0,0,1,2.09-.35,6.38,6.38,0,0,1,1.72.21,3.73,3.73,0,0,1,1.22.57,3,3,0,0,1,.79.9,3.91,3.91,0,0,1,.44,1.15,6.31,6.31,0,0,1,.13,1.35v1H135V9.91c0-.16,0-.29,0-.39a2,2,0,0,0-.05-.37.89.89,0,0,0-.13-.34.65.65,0,0,0-.24-.22.92.92,0,0,0-.87,0,.72.72,0,0,0-.27.36,2.93,2.93,0,0,0-.11.45c0,.14,0,.3,0,.49v7a2.49,2.49,0,0,0,0,.49,2.59,2.59,0,0,0,.14.45.8.8,0,0,0,.79.49.82.82,0,0,0,.61-.24,1.11,1.11,0,0,0,.33-.54,2.84,2.84,0,0,0,.08-.66V15.05H134.1v-2h4.28v7.5h-2.33l-.17-1A2.27,2.27,0,0,1,133.65,20.78Z"/><path class="cls-6" d="M37.72,28.28V23.56h-1V23h2.62v.54h-.93v4.72Z"/><path class="cls-6" d="M40.21,28.28V23h.73v2.27h1.35V23H43v5.26h-.73V25.82H40.94v2.46Z"/><path class="cls-6" d="M44.27,28.28V23h2v.54H45V25.3h1.06v.53H45v1.93h1.32v.52Z"/><path class="cls-6" d="M50.49,28.34a1.22,1.22,0,0,1-1-.41,1.74,1.74,0,0,1-.39-1.12l.65-.18c0,.76.3,1.13.75,1.13a.58.58,0,0,0,.43-.15.66.66,0,0,0,.14-.47,1,1,0,0,0,0-.3.93.93,0,0,0-.12-.27c-.07-.08-.12-.15-.18-.21a2.58,2.58,0,0,0-.23-.22l-.88-.79a1.51,1.51,0,0,1-.39-.51,1.57,1.57,0,0,1-.12-.65,1.18,1.18,0,0,1,.33-.89,1.27,1.27,0,0,1,.91-.33,1.17,1.17,0,0,1,.94.33,1.68,1.68,0,0,1,.38,1L51,24.5q0-.16,0-.3a1.38,1.38,0,0,0-.08-.27.66.66,0,0,0-.12-.22.53.53,0,0,0-.19-.13.64.64,0,0,0-.28,0c-.39,0-.58.22-.58.58a.74.74,0,0,0,.08.38,1.07,1.07,0,0,0,.26.33l.89.79a2.58,2.58,0,0,1,.55.66,1.58,1.58,0,0,1,.21.81,1.21,1.21,0,0,1-.35.91A1.25,1.25,0,0,1,50.49,28.34Z"/><path class="cls-6" d="M53.29,28.28V23.56h-1V23H55v.54H54v4.72Z"/><path class="cls-6" d="M57.11,28.34a1.67,1.67,0,0,1-.67-.12,1,1,0,0,1-.45-.34,1.48,1.48,0,0,1-.24-.54,3,3,0,0,1-.08-.71v-2A2,2,0,0,1,56,23.39a1.32,1.32,0,0,1,1.1-.42,1.3,1.3,0,0,1,1.1.43,1.93,1.93,0,0,1,.34,1.24v2a2,2,0,0,1-.34,1.26A1.3,1.3,0,0,1,57.11,28.34Zm-.36-.64a.8.8,0,0,0,.36.07.77.77,0,0,0,.36-.07.45.45,0,0,0,.21-.2.76.76,0,0,0,.1-.3,2.37,2.37,0,0,0,0-.41v-2.3a2.25,2.25,0,0,0,0-.4.77.77,0,0,0-.1-.29.51.51,0,0,0-.21-.2.93.93,0,0,0-.36-.06,1,1,0,0,0-.36.06.51.51,0,0,0-.21.2,1,1,0,0,0-.1.29,2.25,2.25,0,0,0,0,.4v2.3a2.37,2.37,0,0,0,0,.41,1,1,0,0,0,.1.3A.45.45,0,0,0,56.75,27.7Z"/><path class="cls-6" d="M59.7,28.28V23h1.06a1.74,1.74,0,0,1,1.17.33,1.35,1.35,0,0,1,.37,1.07c0,.67-.22,1.08-.65,1.22l.75,2.64h-.71L61,25.82h-.57v2.46Zm.73-3h.28a1,1,0,0,0,.68-.19.89.89,0,0,0,.21-.68,1,1,0,0,0-.18-.68.88.88,0,0,0-.66-.19h-.33Z"/><path class="cls-6" d="M63.49,28.28V23h2v.54h-1.3V25.3h1.06v.53H64.23v1.93h1.32v.52Z"/><path class="cls-6" d="M68.47,28.28V23h2v.53H69.2V25.3h1v.52h-1v2.46Z"/><path class="cls-6" d="M72.77,28.34a1.71,1.71,0,0,1-.67-.12,1,1,0,0,1-.45-.34,1.48,1.48,0,0,1-.24-.54,3,3,0,0,1-.07-.71v-2a2,2,0,0,1,.33-1.25,1.32,1.32,0,0,1,1.1-.42,1.3,1.3,0,0,1,1.1.43,1.93,1.93,0,0,1,.34,1.24v2a2,2,0,0,1-.34,1.26A1.3,1.3,0,0,1,72.77,28.34Zm-.35-.64a.73.73,0,0,0,.35.07.74.74,0,0,0,.36-.07.41.41,0,0,0,.21-.2.76.76,0,0,0,.1-.3,2.37,2.37,0,0,0,0-.41v-2.3a2.25,2.25,0,0,0,0-.4.77.77,0,0,0-.1-.29.45.45,0,0,0-.21-.2.9.9,0,0,0-.36-.06.88.88,0,0,0-.35.06.48.48,0,0,0-.22.2,1,1,0,0,0-.1.29,2.25,2.25,0,0,0,0,.4v2.3a2.37,2.37,0,0,0,0,.41,1,1,0,0,0,.1.3A.43.43,0,0,0,72.42,27.7Z"/><path class="cls-6" d="M75.36,28.28V23h1.06a1.74,1.74,0,0,1,1.17.33A1.35,1.35,0,0,1,78,24.42c0,.67-.21,1.08-.65,1.22l.75,2.64h-.71l-.69-2.46h-.57v2.46Zm.73-3h.28a1,1,0,0,0,.68-.19.89.89,0,0,0,.21-.68,1,1,0,0,0-.18-.68.88.88,0,0,0-.66-.19h-.33Z"/><path class="cls-6" d="M82.38,28.34a1.72,1.72,0,0,1-.58-.09,1.12,1.12,0,0,1-.4-.24,1.16,1.16,0,0,1-.26-.38,2.43,2.43,0,0,1-.14-.48,4.61,4.61,0,0,1,0-.56V24.73a3.49,3.49,0,0,1,0-.59,2,2,0,0,1,.13-.49,1.29,1.29,0,0,1,.26-.37,1.16,1.16,0,0,1,.41-.23,1.91,1.91,0,0,1,.57-.08,1.24,1.24,0,0,1,1,.39,1.79,1.79,0,0,1,.3,1.13v.41H83v-.56a1.16,1.16,0,0,0,0-.17A.54.54,0,0,0,83,24a.39.39,0,0,0,0-.14.33.33,0,0,0,0-.12l-.08-.09a.26.26,0,0,0-.11-.07l-.14,0-.19,0a.68.68,0,0,0-.26,0,.39.39,0,0,0-.19.1.61.61,0,0,0-.12.16.81.81,0,0,0-.07.22l0,.26v2.39a1.79,1.79,0,0,0,.14.83.6.6,0,0,0,.53.23,1,1,0,0,0,.26,0,.42.42,0,0,0,.17-.11.72.72,0,0,0,.11-.15.64.64,0,0,0,.06-.22L83,27v-.68h.69v.39a4.39,4.39,0,0,1,0,.54,2.13,2.13,0,0,1-.13.45.94.94,0,0,1-.63.55A1.44,1.44,0,0,1,82.38,28.34Z"/><path class="cls-6" d="M86.77,28.25a1.68,1.68,0,0,1-.58.09,1.74,1.74,0,0,1-.59-.09,1,1,0,0,1-.65-.62,2.17,2.17,0,0,1-.13-.5,5.38,5.38,0,0,1,0-.62V23h.7v3.53c0,.15,0,.28,0,.39a1.26,1.26,0,0,0,0,.33.85.85,0,0,0,.12.27.58.58,0,0,0,.21.16.59.59,0,0,0,.31.07.62.62,0,0,0,.31-.07.55.55,0,0,0,.2-.17.79.79,0,0,0,.12-.26,1.91,1.91,0,0,0,.06-.33c0-.11,0-.24,0-.39V23h.7v3.49a3.79,3.79,0,0,1,0,.62,1.76,1.76,0,0,1-.13.5,1,1,0,0,1-.25.39A.92.92,0,0,1,86.77,28.25Z"/><path class="cls-6" d="M88.79,28.28V23h1a1.75,1.75,0,0,1,1.18.33,1.35,1.35,0,0,1,.37,1.07c0,.67-.22,1.08-.65,1.22l.75,2.64h-.71l-.69-2.46h-.57v2.46Zm.73-3h.28a1,1,0,0,0,.68-.19.89.89,0,0,0,.21-.68,1,1,0,0,0-.18-.68.89.89,0,0,0-.67-.19h-.32Z"/><path class="cls-6" d="M92.62,28.28V23h.72v5.26Z"/><path class="cls-6" d="M96,28.34a1.71,1.71,0,0,1-.67-.12,1,1,0,0,1-.45-.34,1.48,1.48,0,0,1-.24-.54,3,3,0,0,1-.07-.71v-2a2,2,0,0,1,.33-1.25,1.65,1.65,0,0,1,2.21,0,2,2,0,0,1,.33,1.24v2a2,2,0,0,1-.34,1.26A1.3,1.3,0,0,1,96,28.34Zm-.35-.64a.73.73,0,0,0,.35.07.74.74,0,0,0,.36-.07.43.43,0,0,0,.22-.2,1.32,1.32,0,0,0,.1-.3c0-.11,0-.25,0-.41v-2.3c0-.16,0-.29,0-.4a1.42,1.42,0,0,0-.1-.29.48.48,0,0,0-.22-.2.9.9,0,0,0-.36-.06.88.88,0,0,0-.35.06.48.48,0,0,0-.22.2,1,1,0,0,0-.1.29c0,.11,0,.24,0,.4v2.3c0,.16,0,.3,0,.41a1,1,0,0,0,.1.3A.43.43,0,0,0,95.6,27.7Z"/><path class="cls-6" d="M100.48,28.25a1.72,1.72,0,0,1-.58.09,1.74,1.74,0,0,1-.59-.09,1,1,0,0,1-.65-.62,1.76,1.76,0,0,1-.13-.5,5.38,5.38,0,0,1,0-.62V23h.7v3.53c0,.15,0,.28,0,.39a1.91,1.91,0,0,0,.06.33.85.85,0,0,0,.12.27.58.58,0,0,0,.21.16.59.59,0,0,0,.31.07.62.62,0,0,0,.31-.07.55.55,0,0,0,.2-.17.79.79,0,0,0,.12-.26,1.91,1.91,0,0,0,.06-.33c0-.11,0-.24,0-.39V23h.7v3.49a5.38,5.38,0,0,1,0,.62,2.17,2.17,0,0,1-.13.5,1,1,0,0,1-.25.39A.92.92,0,0,1,100.48,28.25Z"/><path class="cls-6" d="M103.73,28.34a1.23,1.23,0,0,1-1-.41,1.85,1.85,0,0,1-.39-1.12l.66-.18c0,.76.29,1.13.74,1.13a.56.56,0,0,0,.43-.15.66.66,0,0,0,.15-.47,1,1,0,0,0,0-.3.75.75,0,0,0-.13-.27l-.17-.21a2.58,2.58,0,0,0-.23-.22l-.88-.79a1.51,1.51,0,0,1-.39-.51,1.57,1.57,0,0,1-.12-.65,1.18,1.18,0,0,1,.33-.89,1.26,1.26,0,0,1,.9-.33,1.17,1.17,0,0,1,1,.33,1.68,1.68,0,0,1,.38,1l-.62.17a2.43,2.43,0,0,0,0-.3.9.9,0,0,0-.07-.27.66.66,0,0,0-.12-.22.58.58,0,0,0-.2-.13.61.61,0,0,0-.28,0c-.38,0-.58.22-.58.58a.86.86,0,0,0,.08.38,1.31,1.31,0,0,0,.27.33l.89.79a2.8,2.8,0,0,1,.55.66,1.57,1.57,0,0,1,.2.81,1.21,1.21,0,0,1-.34.91A1.26,1.26,0,0,1,103.73,28.34Z"/><path class="cls-6" d="M108.44,28.28V23.56h-1V23h2.62v.54h-.92v4.72Z"/><path class="cls-6" d="M111,28.28V23h.72v5.26Z"/><path class="cls-6" d="M113,28.28V23h.5l1.49,3.5V23h.61v5.26h-.46l-1.52-3.59v3.59Z"/><path class="cls-6" d="M116.81,28.28V23h.73V25.5L118.75,23h.68l-1,2.32,1.21,2.94h-.71l-1.06-2.61-.29.54v2.07Z"/><path class="cls-6" d="M120.45,28.28V23h2v.54h-1.3V25.3h1.06v.53h-1.06v1.93h1.32v.52Z"/><path class="cls-6" d="M123.52,28.28V23h1.06a1.74,1.74,0,0,1,1.17.33,1.35,1.35,0,0,1,.38,1.07c0,.67-.22,1.08-.66,1.22l.76,2.64h-.71l-.7-2.46h-.56v2.46Zm.74-3h.27a1,1,0,0,0,.69-.19.94.94,0,0,0,.2-.68,1,1,0,0,0-.18-.68.87.87,0,0,0-.66-.19h-.32Z"/><path class="cls-6" d="M127.32,28.28V23h2v.54h-1.31V25.3h1.06v.53h-1.06v1.93h1.32v.52Z"/><path class="cls-6" d="M130.39,28.28V23h1.05a1.75,1.75,0,0,1,1.18.33,1.35,1.35,0,0,1,.37,1.07c0,.67-.22,1.08-.65,1.22l.75,2.64h-.71l-.69-2.46h-.57v2.46Zm.73-3h.28a1,1,0,0,0,.68-.19.89.89,0,0,0,.21-.68,1,1,0,0,0-.18-.68.89.89,0,0,0-.67-.19h-.32Z"/><path class="cls-6" d="M135.42,28.34a1.23,1.23,0,0,1-1-.41,1.85,1.85,0,0,1-.39-1.12l.66-.18c0,.76.29,1.13.74,1.13a.58.58,0,0,0,.43-.15.66.66,0,0,0,.15-.47,1,1,0,0,0,0-.3,1,1,0,0,0-.13-.27l-.17-.21-.23-.22-.88-.79a1.51,1.51,0,0,1-.39-.51,1.57,1.57,0,0,1-.12-.65,1.18,1.18,0,0,1,.33-.89,1.26,1.26,0,0,1,.9-.33,1.19,1.19,0,0,1,.95.33,1.74,1.74,0,0,1,.38,1l-.62.17a2.43,2.43,0,0,0,0-.3,1.34,1.34,0,0,0-.07-.27.91.91,0,0,0-.12-.22.58.58,0,0,0-.2-.13.61.61,0,0,0-.28,0c-.38,0-.58.22-.58.58a.86.86,0,0,0,.08.38,1,1,0,0,0,.27.33l.89.79a2.8,2.8,0,0,1,.55.66,1.68,1.68,0,0,1,.2.81,1.18,1.18,0,0,1-.35.91A1.22,1.22,0,0,1,135.42,28.34Z"/><path class="cls-6" d="M137.59,28.28v-.77h.7v.77Z"/></g></svg>