<svg xmlns="http://www.w3.org/2000/svg" viewBox="0 0 291.52 63.84"><defs><style>.cls-1{fill:#f05e5c;}.cls-2{fill:#375c80;}.cls-3{fill:#f05d57;}.cls-4,.cls-5{fill:#171718;}.cls-5{fill-rule:evenodd;}.cls-6{fill:#fff;}.cls-7{fill:none;stroke:#fff;stroke-linejoin:round;stroke-width:1.5px;}</style></defs><title>07 Get Hacking Tetiary Logo V2</title><g id="_Get_Hacking_Tetiary_Logo" data-name=" Get Hacking Tetiary Logo"><g id="_02_Get_Hacking_Tetiary_Logo_V3" data-name="02 Get Hacking Tetiary Logo V3"><path class="cls-1" d="M84.57,38.12a10,10,0,0,1-4.21-.78,6.3,6.3,0,0,1-2.75-2.28,10.51,10.51,0,0,1-1.45-3.42,20,20,0,0,1-.47-4.43l0-10.61a18.06,18.06,0,0,1,.48-4.52,9.59,9.59,0,0,1,1.6-3.43,7,7,0,0,1,3-2.26,12.45,12.45,0,0,1,4.62-.8,13.71,13.71,0,0,1,3.8.45,8.2,8.2,0,0,1,2.71,1.24,6.44,6.44,0,0,1,1.76,2,8.83,8.83,0,0,1,1,2.54,15,15,0,0,1,.3,3V17l-7.59.05,0-3c0-.35,0-.64,0-.86a5.06,5.06,0,0,0-.12-.82,2.09,2.09,0,0,0-.28-.76,1.6,1.6,0,0,0-.54-.48,1.64,1.64,0,0,0-.88-.2,1.73,1.73,0,0,0-1,.29,1.55,1.55,0,0,0-.6.81,5,5,0,0,0-.23,1,8.78,8.78,0,0,0,0,1.09l.07,15.46a7.36,7.36,0,0,0,.1,1.1,4.57,4.57,0,0,0,.32,1,1.84,1.84,0,0,0,.67.79,2,2,0,0,0,1.08.29,1.9,1.9,0,0,0,1.35-.54A2.67,2.67,0,0,0,87.87,31a5.67,5.67,0,0,0,.18-1.46l0-4.11-2.53,0,0-4.43L95,21,95,37.56l-5.16,0-.39-2.3A5,5,0,0,1,84.57,38.12Z"/><path class="cls-1" d="M99.3,37.54,99.15,6l14.76-.09,0,5.17-7,0,0,7,5.25,0,0,5.36-5.25,0,0,8.81,7.11,0,0,5.15Z"/><path class="cls-1" d="M120,37.42l-.12-25.83-4.6,0,0-5.71,16.91-.09,0,5.7-4.58,0,.13,25.82Z"/><path class="cls-2" d="M145.61,37.27l-.15-31.53,7.7,0,.06,12.48,3.94,0L157.1,5.67l7.72,0L165,37.16l-7.72,0-.06-13.52-3.94,0,.07,13.52Z"/><path class="cls-2" d="M168.32,37.14l5.57-31.56,9-.06L188.69,37l-7.06,0-1-6.29-4.09,0-.92,6.3Zm8.79-10.8H180l-1.49-11.77Z"/><path class="cls-2" d="M201.24,37.45a13.13,13.13,0,0,1-4.61-.69,6.81,6.81,0,0,1-3-2.1A9.07,9.07,0,0,1,192,31.37a16.91,16.91,0,0,1-.52-4.42l-.06-11.4a17.28,17.28,0,0,1,.48-4.45,9.06,9.06,0,0,1,1.6-3.3,6.84,6.84,0,0,1,3-2.14,13.25,13.25,0,0,1,4.61-.74,14.78,14.78,0,0,1,3.78.43,8,8,0,0,1,2.7,1.22,6.24,6.24,0,0,1,1.73,1.95,8.55,8.55,0,0,1,.95,2.49,14.24,14.24,0,0,1,.29,3l0,2.83-7.59.05,0-3.46a10.78,10.78,0,0,0,0-1.1,5.35,5.35,0,0,0-.21-1,1.42,1.42,0,0,0-.56-.81,1.81,1.81,0,0,0-1-.27,1.74,1.74,0,0,0-.88.21,1.53,1.53,0,0,0-.56.5,2.23,2.23,0,0,0-.29.76,6.45,6.45,0,0,0-.13.84c0,.24,0,.53,0,.86L199.3,29q0,.5,0,.87a5,5,0,0,0,.15.84,2.39,2.39,0,0,0,.31.75,1.45,1.45,0,0,0,.56.5,1.86,1.86,0,0,0,.87.19,1.76,1.76,0,0,0,1-.28,1.47,1.47,0,0,0,.56-.83,4.61,4.61,0,0,0,.19-1,10.9,10.9,0,0,0,0-1.1l0-3.61,7.59,0v2.81a14.64,14.64,0,0,1-.26,3,8.92,8.92,0,0,1-.93,2.54,6.44,6.44,0,0,1-1.71,2A8.37,8.37,0,0,1,205,37,13.81,13.81,0,0,1,201.24,37.45Z"/><path class="cls-2" d="M214.32,36.88l-.15-31.54,7.72,0L222,17.58l4.72-12.31,7.58,0L228.6,19.58l5.88,17.18-7.93,0-4.17-13.63-.4.5.07,13.16Z"/><path class="cls-2" d="M237.26,36.74l-.15-31.53,7.7,0L245,36.7Z"/><path class="cls-2" d="M249.55,36.67l-.16-31.53,5.48,0,5.83,13.47-.07-13.51L267,5l.16,31.53-5.27,0-5.8-14.8.07,14.83Z"/><path class="cls-2" d="M280.19,37a10.15,10.15,0,0,1-4.21-.77,6.34,6.34,0,0,1-2.75-2.29,10.3,10.3,0,0,1-1.45-3.42,19.33,19.33,0,0,1-.47-4.42l-.05-10.62a18.11,18.11,0,0,1,.48-4.52,9.59,9.59,0,0,1,1.6-3.43,6.9,6.9,0,0,1,3-2.26,12.45,12.45,0,0,1,4.62-.8,13.71,13.71,0,0,1,3.8.45,8.11,8.11,0,0,1,2.71,1.25,6.42,6.42,0,0,1,1.76,2,8.53,8.53,0,0,1,1,2.54,13.73,13.73,0,0,1,.3,3v2.26L283,16l0-3c0-.35,0-.64,0-.86s-.06-.5-.12-.82a2.38,2.38,0,0,0-.28-.76A1.6,1.6,0,0,0,282,10a1.66,1.66,0,0,0-.88-.2,1.77,1.77,0,0,0-1,.29,1.55,1.55,0,0,0-.6.81,4.39,4.39,0,0,0-.23,1,7.26,7.26,0,0,0-.05,1.09l.07,15.47a6.22,6.22,0,0,0,.1,1.09,4.84,4.84,0,0,0,.32,1,1.81,1.81,0,0,0,.67.78,1.89,1.89,0,0,0,1.07.29,1.84,1.84,0,0,0,1.36-.54,2.67,2.67,0,0,0,.72-1.21,5.68,5.68,0,0,0,.17-1.46l0-4.11-2.53,0,0-4.43,9.47-.06.08,16.6-5.15,0-.39-2.29A5,5,0,0,1,280.19,37Z"/><g id="Get_Hacking_icon" data-name="Get Hacking icon"><circle id="Logo_Base" data-name="Logo Base" class="cls-3" cx="31.96" cy="31.96" r="31.96"/><g id="Head"><circle id="Shoulder" class="cls-4" cx="48.96" cy="34.89" r="2.29"/><circle id="Shoulder-2" data-name="Shoulder" class="cls-4" cx="14.95" cy="34.89" r="2.29"/><g id="Face"><path class="cls-5" d="M41.78,47.64H22.15A7.89,7.89,0,0,1,14.44,38l3.71-16.87a6.25,6.25,0,0,1,6.11-4.91H39.69a6.26,6.26,0,0,1,6.11,4.92l3.69,16.87A7.9,7.9,0,0,1,41.78,47.64Z"/><circle id="White_Eye_Ball" data-name="White Eye Ball" class="cls-6" cx="31.96" cy="26.45" r="6.54"/><circle id="Eye" class="cls-4" cx="31.96" cy="27.96" r="1.63"/></g><g id="Alarm"><path id="Alarm-2" data-name="Alarm" class="cls-6" d="M32,9.29h0a2.14,2.14,0,0,1,2.14,2.14v2.7a0,0,0,0,1,0,0H29.82a0,0,0,0,1,0,0v-2.7A2.14,2.14,0,0,1,32,9.29Z"/><g id="Stripes"><line id="_04" data-name="04" class="cls-7" x1="31.8" y1="7.91" x2="31.8" y2="5.7"/><line id="_03" data-name="03" class="cls-7" x1="29.64" y1="8.61" x2="28.37" y2="6.8"/><line id="_02" data-name="02" class="cls-7" x1="27.98" y1="10.64" x2="25.97" y2="9.71"/><line id="_01" data-name="01" class="cls-7" x1="27.64" y1="13.4" x2="25.43" y2="13.4"/><line id="_03-2" data-name="03" class="cls-7" x1="34.29" y1="8.61" x2="35.56" y2="6.8"/><line id="_02-2" data-name="02" class="cls-7" x1="35.95" y1="10.64" x2="37.95" y2="9.71"/><line id="_01-2" data-name="01" class="cls-7" x1="36.28" y1="13.4" x2="38.5" y2="13.4"/></g></g></g><g id="Book"><g id="Red"><path id="Base_Bottom" data-name="Base Bottom" class="cls-6" d="M45.12,53.16,44,55.22H32.47v-.66s0-1.41,1.33-1.41C33.8,53.15,45.11,53.14,45.12,53.16Z"/><path id="Base" class="cls-6" d="M45.08,52.28h-11c-1.07,0-1.45.48-1.58.75a0,0,0,0,1-.06,0V40.64a3.1,3.1,0,0,1,1-2.58,4.85,4.85,0,0,1,2.93-.77h8.65Z"/></g><g id="Blue"><path id="Base_Bottom-2" data-name="Base Bottom" class="cls-6" d="M18.77,53.16l1.17,2.06H31.42v-.66s0-1.41-1.33-1.41C30.09,53.15,18.78,53.14,18.77,53.16Z"/><path id="Base-2" data-name="Base" class="cls-6" d="M18.81,52.28h11c1.08,0,1.45.48,1.58.75,0,0,.06,0,.06,0V40.64a3.08,3.08,0,0,0-1-2.58,4.85,4.85,0,0,0-2.93-.77H18.81Z"/></g></g><g id="Rt_Arm" data-name="Rt Arm"><path id="Hand" class="cls-4" d="M16.35,46.32c-3.12-.14-5.53-1.73-5.53-4.89a5.88,5.88,0,0,1,4.47-5.71l-.14-1.33a7.84,7.84,0,0,0,1.56,15.53l1.19-.05,3.52,1.42,3.5-1.49,1.42-3.52-1.48-3.49-1.74,1.77.74,1.75-.71,1.76-1.75.74-1.76-.71-.83-1.84V42.44l-1,.41-1.49,3.47"/></g><g id="Rt_Arm-2" data-name="Rt Arm"><path id="Hand-2" data-name="Hand" class="cls-4" d="M47.55,46.32c3.12-.14,5.52-1.73,5.52-4.89a5.88,5.88,0,0,0-4.46-5.71l.13-1.33a7.84,7.84,0,0,1-1.55,15.53H45.08v-3.6h2.46"/><polygon id="Screw" class="cls-4" points="44.09 48.53 39.93 48.53 39.93 48.29 38.52 48.29 38.1 48.43 36.34 48.11 36.34 47.86 38.1 47.53 38.52 47.68 39.93 47.68 39.93 47.36 44.09 47.36 44.09 48.53"/><rect class="cls-4" x="44.08" y="47.01" width="1" height="2"/></g></g></g><path class="cls-2" d="M79.54,55.29V45.85H77.62V44.76h5.24v1.09H81v9.44Z"/><path class="cls-2" d="M84.84,55.29V44.76h1.47v4.55H89V44.76h1.47V55.29H89V50.35h-2.7v4.94Z"/><path class="cls-2" d="M93.3,55.29V44.76h4.07v1.09H94.76v3.47h2.12v1H94.76v3.86H97.4v1.06Z"/><path class="cls-2" d="M106.38,55.4a2.48,2.48,0,0,1-2-.82,3.61,3.61,0,0,1-.78-2.24l1.3-.36c.1,1.51.6,2.26,1.5,2.26a1.13,1.13,0,0,0,.86-.31,1.33,1.33,0,0,0,.29-.92,2,2,0,0,0-.08-.62,1.63,1.63,0,0,0-.26-.53,3.23,3.23,0,0,0-.34-.42c-.11-.12-.26-.27-.46-.45l-1.77-1.57a3.12,3.12,0,0,1-.77-1,3,3,0,0,1-.25-1.31,2.34,2.34,0,0,1,.67-1.78,2.56,2.56,0,0,1,1.81-.65,2.42,2.42,0,0,1,1.89.65,3.46,3.46,0,0,1,.76,2.07l-1.24.35c0-.23,0-.44-.07-.61a2.72,2.72,0,0,0-.15-.54,1.41,1.41,0,0,0-.25-.44.89.89,0,0,0-.38-.26,1.12,1.12,0,0,0-.56-.08c-.78.05-1.16.44-1.16,1.15a1.67,1.67,0,0,0,.16.78,2.4,2.4,0,0,0,.53.65L107.39,50a5.64,5.64,0,0,1,1.1,1.33,3.19,3.19,0,0,1,.41,1.61,2.45,2.45,0,0,1-.7,1.83A2.52,2.52,0,0,1,106.38,55.4Z"/><path class="cls-2" d="M112.3,55.29V45.85h-1.92V44.76h5.24v1.09h-1.85v9.44Z"/><path class="cls-2" d="M120.28,55.4a3.4,3.4,0,0,1-1.35-.24,1.92,1.92,0,0,1-.89-.69,3.23,3.23,0,0,1-.49-1.06A6,6,0,0,1,117.4,52V48a3.91,3.91,0,0,1,.67-2.49,3.29,3.29,0,0,1,4.41,0,4,4,0,0,1,.67,2.49v4a4.1,4.1,0,0,1-.67,2.53A2.6,2.6,0,0,1,120.28,55.4Zm-.72-1.28a1.69,1.69,0,0,0,.72.13,1.67,1.67,0,0,0,.71-.13,1,1,0,0,0,.43-.41,1.93,1.93,0,0,0,.2-.6,4.73,4.73,0,0,0,0-.81V47.69a4.49,4.49,0,0,0,0-.79,1.81,1.81,0,0,0-.2-.58.86.86,0,0,0-.43-.39,1.67,1.67,0,0,0-.71-.13,1.69,1.69,0,0,0-.72.13.86.86,0,0,0-.43.39,2.09,2.09,0,0,0-.2.58,5.72,5.72,0,0,0-.05.79V52.3a6,6,0,0,0,.05.81,2.23,2.23,0,0,0,.2.6A1,1,0,0,0,119.56,54.12Z"/><path class="cls-2" d="M125.78,55.29V44.76h2.11a3.5,3.5,0,0,1,2.34.65,2.71,2.71,0,0,1,.75,2.14c0,1.35-.43,2.17-1.3,2.45l1.5,5.29h-1.42l-1.38-4.94h-1.14v4.94Zm1.46-6h.55a2,2,0,0,0,1.37-.37,1.85,1.85,0,0,0,.41-1.37,2,2,0,0,0-.35-1.35,1.78,1.78,0,0,0-1.33-.38h-.65Z"/><path class="cls-2" d="M133.69,55.29V44.76h4.08v1.09h-2.61v3.47h2.12v1h-2.12v3.86h2.64v1.06Z"/><path class="cls-2" d="M144.3,55.29V44.76h4.06v1.06h-2.6v3.49h2v1h-2v4.93Z"/><path class="cls-2" d="M153.22,55.4a3.38,3.38,0,0,1-1.34-.24,2,2,0,0,1-.9-.69,3,3,0,0,1-.48-1.06,6,6,0,0,1-.15-1.43V48a3.91,3.91,0,0,1,.67-2.49,2.62,2.62,0,0,1,2.2-.85,2.65,2.65,0,0,1,2.21.85A4,4,0,0,1,156.1,48v4a4.1,4.1,0,0,1-.68,2.53A2.59,2.59,0,0,1,153.22,55.4Zm-.71-1.28a1.67,1.67,0,0,0,.71.13,1.69,1.69,0,0,0,.72-.13,1,1,0,0,0,.43-.41,2.23,2.23,0,0,0,.2-.6,6,6,0,0,0,.05-.81V47.69a5.72,5.72,0,0,0-.05-.79,2.09,2.09,0,0,0-.2-.58.86.86,0,0,0-.43-.39,1.69,1.69,0,0,0-.72-.13,1.67,1.67,0,0,0-.71.13.86.86,0,0,0-.43.39,1.81,1.81,0,0,0-.2.58,5.72,5.72,0,0,0,0,.79V52.3a6,6,0,0,0,0,.81,1.93,1.93,0,0,0,.2.6A1,1,0,0,0,152.51,54.12Z"/><path class="cls-2" d="M158.72,55.29V44.76h2.12a3.52,3.52,0,0,1,2.34.65,2.71,2.71,0,0,1,.75,2.14c0,1.35-.43,2.17-1.3,2.45l1.5,5.29h-1.42l-1.38-4.94h-1.14v4.94Zm1.47-6h.55a2,2,0,0,0,1.37-.37,1.85,1.85,0,0,0,.41-1.37,2,2,0,0,0-.35-1.35,1.78,1.78,0,0,0-1.33-.38h-.65Z"/><path class="cls-2" d="M173.41,55.4a3.35,3.35,0,0,1-1.15-.18A2.1,2.1,0,0,1,170.94,54a3.47,3.47,0,0,1-.28-.95,7.78,7.78,0,0,1-.07-1.13V48.18a8.32,8.32,0,0,1,.07-1.18,4.29,4.29,0,0,1,.28-1,2.1,2.1,0,0,1,.52-.74,2.47,2.47,0,0,1,.8-.46,3.63,3.63,0,0,1,1.15-.16,2.47,2.47,0,0,1,2,.77,3.54,3.54,0,0,1,.61,2.26v.84h-1.39V47.4c0-.09,0-.2,0-.33a1.82,1.82,0,0,0,0-.32c0-.08,0-.17-.06-.27a.9.9,0,0,0-.11-.24,1.22,1.22,0,0,0-.16-.18.51.51,0,0,0-.21-.15l-.29-.08a2.05,2.05,0,0,0-.37,0,1.7,1.7,0,0,0-.53.07.75.75,0,0,0-.37.21,1.18,1.18,0,0,0-.24.31,1.52,1.52,0,0,0-.14.44,5.19,5.19,0,0,0-.06.52c0,.17,0,.38,0,.62v4.17a3.25,3.25,0,0,0,.3,1.65,1.16,1.16,0,0,0,1.06.46,1.88,1.88,0,0,0,.51-.06.73.73,0,0,0,.35-.21,1.6,1.6,0,0,0,.22-.31,1.61,1.61,0,0,0,.12-.43,4.4,4.4,0,0,0,0-.49c0-.16,0-.35,0-.6v-.77h1.39v.78a6.86,6.86,0,0,1-.07,1.07,3.75,3.75,0,0,1-.26.9,2.33,2.33,0,0,1-.49.69,2,2,0,0,1-.76.42A3.17,3.17,0,0,1,173.41,55.4Z"/><path class="cls-2" d="M182.52,55.23a4.11,4.11,0,0,1-2.34,0,2.29,2.29,0,0,1-.81-.48,2.23,2.23,0,0,1-.5-.77,4.15,4.15,0,0,1-.25-1,8.88,8.88,0,0,1-.07-1.23v-7h1.39v7.05q0,.45,0,.78a3.79,3.79,0,0,0,.11.66,1.69,1.69,0,0,0,.24.54,1.24,1.24,0,0,0,.41.33,1.54,1.54,0,0,0,1.24,0,1.15,1.15,0,0,0,.41-.34,1.54,1.54,0,0,0,.24-.53,3.79,3.79,0,0,0,.11-.66q0-.33,0-.78V44.76h1.39v7a8.88,8.88,0,0,1-.07,1.23,4.15,4.15,0,0,1-.25,1,2.39,2.39,0,0,1-.5.77A2.29,2.29,0,0,1,182.52,55.23Z"/><path class="cls-2" d="M186.88,55.29V44.76H189a3.55,3.55,0,0,1,2.35.65,2.74,2.74,0,0,1,.74,2.14c0,1.35-.43,2.17-1.3,2.45l1.51,5.29h-1.43l-1.38-4.94h-1.14v4.94Zm1.46-6h.56a2,2,0,0,0,1.36-.37,1.81,1.81,0,0,0,.41-1.37,2,2,0,0,0-.35-1.35,1.76,1.76,0,0,0-1.33-.38h-.65Z"/><path class="cls-2" d="M194.86,55.29V44.76h1.45V55.29Z"/><path class="cls-2" d="M201.86,55.4a3.46,3.46,0,0,1-1.35-.24,2,2,0,0,1-.89-.69,3,3,0,0,1-.48-1.06A6,6,0,0,1,199,52V48a3.91,3.91,0,0,1,.67-2.49,3.27,3.27,0,0,1,4.4,0,4,4,0,0,1,.68,2.49v4a4.1,4.1,0,0,1-.68,2.53A2.59,2.59,0,0,1,201.86,55.4Zm-.71-1.28a1.64,1.64,0,0,0,.71.13,1.69,1.69,0,0,0,.72-.13.93.93,0,0,0,.42-.41,1.7,1.7,0,0,0,.2-.6,4.62,4.62,0,0,0,.06-.81V47.69a4.38,4.38,0,0,0-.06-.79,1.6,1.6,0,0,0-.2-.58.84.84,0,0,0-.42-.39,1.69,1.69,0,0,0-.72-.13,1.64,1.64,0,0,0-.71.13.86.86,0,0,0-.43.39,1.6,1.6,0,0,0-.2.58,4.38,4.38,0,0,0-.06.79V52.3a4.62,4.62,0,0,0,.06.81,1.7,1.7,0,0,0,.2.6A1,1,0,0,0,201.15,54.12Z"/><path class="cls-2" d="M211.24,55.23a4.11,4.11,0,0,1-2.34,0,2.29,2.29,0,0,1-.81-.48,2.23,2.23,0,0,1-.5-.77,4.15,4.15,0,0,1-.25-1,8.88,8.88,0,0,1-.07-1.23v-7h1.39v7.05q0,.45,0,.78a3.79,3.79,0,0,0,.11.66,1.69,1.69,0,0,0,.24.54,1.24,1.24,0,0,0,.41.33,1.54,1.54,0,0,0,1.24,0,1.15,1.15,0,0,0,.41-.34,1.37,1.37,0,0,0,.23-.53,3.82,3.82,0,0,0,.12-.66c0-.22,0-.48,0-.78V44.76h1.4v7A8.88,8.88,0,0,1,212.8,53a4.16,4.16,0,0,1-.26,1,2.21,2.21,0,0,1-.49.77A2.29,2.29,0,0,1,211.24,55.23Z"/><path class="cls-2" d="M218.07,55.4a2.49,2.49,0,0,1-2-.82,3.73,3.73,0,0,1-.78-2.24l1.31-.36c.09,1.51.59,2.26,1.49,2.26a1.12,1.12,0,0,0,.86-.31,1.29,1.29,0,0,0,.3-.92,2.39,2.39,0,0,0-.08-.62,1.86,1.86,0,0,0-.26-.53,3.23,3.23,0,0,0-.35-.42,5,5,0,0,0-.46-.45l-1.76-1.57a2.8,2.8,0,0,1-1-2.33,2.37,2.37,0,0,1,.66-1.78,2.58,2.58,0,0,1,1.81-.65,2.39,2.39,0,0,1,1.89.65,3.46,3.46,0,0,1,.76,2.07l-1.24.35c0-.23,0-.44-.07-.61a3.58,3.58,0,0,0-.14-.54,1.41,1.41,0,0,0-.25-.44,1,1,0,0,0-.39-.26,1.12,1.12,0,0,0-.56-.08c-.77.05-1.16.44-1.16,1.15a1.67,1.67,0,0,0,.16.78,2.61,2.61,0,0,0,.53.65L219.08,50a5.41,5.41,0,0,1,1.1,1.33,3.09,3.09,0,0,1,.41,1.61,2.41,2.41,0,0,1-.7,1.83A2.5,2.5,0,0,1,218.07,55.4Z"/><path class="cls-2" d="M228.14,55.29V45.85h-1.93V44.76h5.25v1.09H229.6v9.44Z"/><path class="cls-2" d="M233.5,55.29V44.76h1.44V55.29Z"/><path class="cls-2" d="M237.82,55.29V44.76h1l3,7v-7H243V55.29h-.94l-3-7.2v7.2Z"/><path class="cls-2" d="M245.85,55.29V44.76h1.47v5l2.41-5h1.37L249,49.4l2.42,5.89H250l-2.11-5.22-.57,1.07v4.15Z"/><path class="cls-2" d="M253.46,55.29V44.76h4.07v1.09h-2.61v3.47h2.13v1h-2.13v3.86h2.65v1.06Z"/><path class="cls-2" d="M259.92,55.29V44.76H262a3.53,3.53,0,0,1,2.34.65,2.71,2.71,0,0,1,.75,2.14c0,1.35-.44,2.17-1.3,2.45l1.5,5.29h-1.42l-1.38-4.94h-1.14v4.94Zm1.47-6h.55a2,2,0,0,0,1.37-.37,1.85,1.85,0,0,0,.41-1.37,2,2,0,0,0-.35-1.35,1.78,1.78,0,0,0-1.33-.38h-.65Z"/><path class="cls-2" d="M267.84,55.29V44.76h4.08v1.09h-2.61v3.47h2.12v1h-2.12v3.86H272v1.06Z"/><path class="cls-2" d="M274.3,55.29V44.76h2.12a3.5,3.5,0,0,1,2.34.65,2.71,2.71,0,0,1,.75,2.14c0,1.35-.43,2.17-1.3,2.45l1.5,5.29h-1.42l-1.38-4.94h-1.14v4.94Zm1.47-6h.55a2,2,0,0,0,1.37-.37,1.85,1.85,0,0,0,.41-1.37,2,2,0,0,0-.35-1.35,1.78,1.78,0,0,0-1.33-.38h-.65Z"/><path class="cls-2" d="M284.7,55.4a2.48,2.48,0,0,1-2-.82,3.61,3.61,0,0,1-.78-2.24l1.31-.36c.09,1.51.59,2.26,1.49,2.26a1.13,1.13,0,0,0,.86-.31,1.33,1.33,0,0,0,.29-.92,2,2,0,0,0-.08-.62,1.63,1.63,0,0,0-.26-.53,3.23,3.23,0,0,0-.34-.42c-.11-.12-.26-.27-.46-.45L283,49.42a2.84,2.84,0,0,1-1-2.33,2.34,2.34,0,0,1,.67-1.78,2.56,2.56,0,0,1,1.81-.65,2.42,2.42,0,0,1,1.89.65,3.46,3.46,0,0,1,.76,2.07l-1.24.35c0-.23,0-.44-.07-.61a2.72,2.72,0,0,0-.15-.54,1.41,1.41,0,0,0-.25-.44.89.89,0,0,0-.38-.26,1.12,1.12,0,0,0-.56-.08c-.78.05-1.16.44-1.16,1.15a1.67,1.67,0,0,0,.16.78,2.4,2.4,0,0,0,.53.65L285.71,50a5.41,5.41,0,0,1,1.1,1.33,3.19,3.19,0,0,1,.41,1.61,2.45,2.45,0,0,1-.7,1.83A2.52,2.52,0,0,1,284.7,55.4Z"/><path class="cls-2" d="M289.35,55.29V53.74h1.4v1.55Z"/></g></svg>