<?xml version="1.0" encoding="UTF-8"?>
<svg width="1280px" height="320px" viewBox="0 0 1280 320" version="1.1" xmlns="http://www.w3.org/2000/svg" xmlns:xlink="http://www.w3.org/1999/xlink">
    <!-- Generator: Sketch 49.3 (51167) - http://www.bohemiancoding.com/sketch -->
    <title>logo-store</title>
    <desc>Created with Sketch.</desc>
    <defs></defs>
    <g id="logo-store" stroke="none" stroke-width="1" fill="none" fill-rule="evenodd">
        <g id="Oval-13-+-icon-copy" transform="translate(35.000000, 41.000000)" stroke="#D0021B" stroke-width="3.13043478">
            <circle id="Oval-13" fill="#E7E7E7" cx="120" cy="120" r="120"></circle>
            <g id="icon-copy" transform="translate(40.784314, 29.803922)" fill="#FFFFFF">
                <path d="M83.9329946,80.7843137 L82.0491595,80.7843137 L82.0491595,47.4351713 L83.9329946,47.4351713 L83.9329946,80.7843137 L83.9329946,80.7843137 Z M88.923834,29.5748261 C88.923834,24.2866346 84.5550572,19.9586414 79.2145833,19.9586414 L79.2145833,19.9586414 C73.8752124,19.9586414 69.5053327,24.2855422 69.5053327,29.5748261 L69.5053327,41.3276979 L88.922731,41.3276979 L88.922731,29.5748261 L88.923834,29.5748261 Z M88.923834,43.3868264 L69.5064356,43.3868264 L68.2744428,43.3868264 L68.2744428,45.4470472 L69.5075386,45.4470472 L88.9249369,45.4470472 L90.1580327,45.4470472 L90.1580327,43.3868264 L88.923834,43.3868264 L88.923834,43.3868264 Z M76.3811101,47.4351713 L74.497275,47.4351713 L74.497275,73.4588413 L76.3811101,73.4588413 L76.3811101,47.4351713 L76.3811101,47.4351713 Z M55.1292365,31.0061773 L45.2432607,31.0061773 L45.2432607,33.3687284 L55.1292365,33.3687284 L55.1292365,31.0061773 L55.1292365,31.0061773 Z M58.9794447,19.7617207 L50.4183935,15.0812961 L49.1708505,17.1275298 L57.7319018,21.8079545 L58.9794447,19.7617207 L58.9794447,19.7617207 Z M68.2501422,11.8466383 L63.3071543,3.74033589 L61.1461306,4.92161145 L66.0891185,13.0279139 L68.2501422,11.8466383 L68.2501422,11.8466383 Z M80.4594545,9.38043522 L80.4594545,0.0195859577 L77.9643686,0.0195859577 L77.966256,9.38043522 L80.4594545,9.38043522 L80.4594545,9.38043522 Z M97.2776926,4.91803724 L95.1166688,3.73676169 L90.1755683,11.8430641 L92.336592,13.0243397 L97.2776926,4.91803724 L97.2776926,4.91803724 Z M109.256747,17.1221685 L108.009204,15.0759348 L99.4500404,19.7581465 L100.697583,21.8043803 L109.256747,17.1221685 L109.256747,17.1221685 Z M113.188112,33.36158 L113.188112,30.9990289 L103.302136,31.000816 L103.302136,33.3633671 L113.188112,33.36158 L113.188112,33.36158 Z" id="Shape"></path>
                <path d="M47.6856999,40.0592795 C34.716971,40.0592795 21.8285503,50.2940256 18.8966486,62.9276617 L4.87072008,123.365729 C-0.993073989,148.63296 15.2674865,169.116098 41.2177119,169.116098 L119.367468,169.116098 C145.305152,169.116098 161.577804,148.63102 155.71446,123.365729 L141.688532,62.9276617 C138.757507,50.297803 125.878452,40.0592795 112.89948,40.0592795 L47.6856999,40.0592795 Z" id="face"></path>
                <path d="M96.8184045,74.9550104 C102.669463,66.1815078 112.724141,60.3921569 124.146035,60.3921569 C142.212825,60.3921569 156.858853,74.877062 156.858853,92.745098 C156.858853,110.613134 142.212825,125.098039 124.146035,125.098039 C106.079244,125.098039 91.4332164,110.613134 91.4332164,92.745098 C91.4332164,88.3470138 92.320563,84.1539005 93.9278557,80.331317 C90.1236822,78.4311005 85.7454694,77.3490029 81.0864811,77.3490029 C75.1141386,77.3490029 69.6031832,79.1271701 65.1713719,82.1274362 C66.3392185,85.4533398 66.9737561,89.025932 66.9737561,92.745098 C66.9737561,110.613134 52.3277285,125.098039 34.2609379,125.098039 C16.1941473,125.098039 1.54811973,110.613134 1.54811973,92.745098 C1.54811973,74.877062 16.1941473,60.3921569 34.2609379,60.3921569 C46.3349924,60.3921569 56.8812443,66.8614957 62.5491681,76.4865072 C67.8394677,73.2657273 74.2189476,71.3847882 81.0864811,71.3847882 C86.7801021,71.3847882 92.1382613,72.6776445 96.8184045,74.9550104 Z" id="eye-bridge"></path>
            </g>
        </g>
        <g id="text" transform="translate(320.000000, -8.000000)">
            <path d="M76.5,84.74 C74.52,69.62 64.98,62.06 49.14,62.06 C32.04,62.06 21.96,71.24 21.96,91.22 L21.96,148.28 C21.96,168.26 32.04,177.44 49.14,177.44 C66.24,177.44 76.5,168.26 76.5,148.28 L76.5,124.16 L49.86,124.16 C47.52,124.16 46.26,122 46.26,120.02 C46.26,118.04 47.52,115.88 49.86,115.88 L81.72,115.88 C84.06,115.88 85.5,117.86 85.5,120.02 L85.5,148.28 C85.5,175.82 69.48,186.08 49.14,186.08 C28.62,186.08 12.96,175.82 12.96,148.28 L12.96,91.22 C12.96,63.68 28.8,53.42 48.96,53.42 C71.64,53.42 85.5,66.56 85.5,83.84 C85.5,87.26 83.52,88.52 81,88.52 C78.66,88.52 76.68,87.44 76.5,84.74 Z M119.7,62.06 L119.7,114.98 L148.32,114.98 C150.66,114.98 152.1,116.96 152.1,119.3 C152.1,121.1 151.02,123.26 148.32,123.26 L119.7,123.26 L119.7,176.36 L179.1,176.36 C181.44,176.36 182.88,178.52 182.88,180.86 C182.88,182.84 181.8,185 179.1,185 L115.02,185 C112.86,185 110.7,183.74 110.7,181.04 L110.7,57.38 C110.7,54.68 112.86,53.42 115.02,53.42 L179.1,53.42 C181.8,53.42 182.88,55.58 182.88,57.56 C182.88,59.9 181.44,62.06 179.1,62.06 L119.7,62.06 Z M193.5,53.42 L264.78,53.42 C267.3,53.42 268.56,55.4 268.56,57.56 C268.56,59.72 267.48,62.06 264.78,62.06 L233.82,62.06 L233.82,181.04 C233.82,183.74 231.48,185 229.32,185 C226.98,185 224.82,183.74 224.82,181.04 L224.82,62.06 L193.5,62.06 C191.16,62.06 189.72,59.9 189.72,57.74 C189.72,55.58 191.16,53.42 193.5,53.42 Z M385.38,181.04 L385.38,120.92 L330.48,120.92 L330.48,181.04 C330.48,183.74 328.32,185 325.98,185 C323.82,185 321.48,183.74 321.48,181.04 L321.48,57.2 C321.48,54.5 323.82,53.42 325.98,53.42 C328.32,53.42 330.48,54.5 330.48,57.2 L330.48,112.64 L385.38,112.64 L385.38,57.2 C385.38,54.5 387.72,53.42 389.88,53.42 C392.22,53.42 394.38,54.5 394.38,57.2 L394.38,181.04 C394.38,183.74 392.22,185 389.88,185 C387.72,185 385.38,183.74 385.38,181.04 Z M417.78,185 C415.44,185 412.74,183.56 412.74,181.04 C412.74,180.68 412.74,180.32 412.92,179.96 L451.44,55.58 C452.16,53.42 454.14,52.34 456.48,52.34 C458.64,52.34 460.8,53.42 461.52,55.58 L499.68,179.96 C499.68,180.32 499.86,180.5 499.86,181.04 C499.86,183.2 497.16,185 494.64,185 C493.02,185 491.58,184.28 491.04,182.3 L482.22,153.68 L430.38,153.68 L421.74,182.3 C421.02,184.28 419.58,185 417.78,185 Z M432.72,145.4 L479.7,145.4 L456.48,68.54 L432.72,145.4 Z M580.5,84.74 C579.96,76.46 576,62.06 553.68,62.06 C535.68,62.06 525.96,71.24 525.96,91.22 L525.96,148.28 C525.96,168.44 535.68,177.44 554.22,177.44 C576.9,177.44 579.06,163.58 580.5,154.58 C580.68,152.42 581.76,150.8 584.82,150.8 C587.88,150.8 589.5,151.88 589.5,156.92 C589.5,171.86 576.54,186.08 553.14,186.08 C533.34,186.08 516.96,175.82 516.96,148.28 L516.96,91.22 C516.96,63.68 533.7,53.42 553.68,53.42 C576.9,53.42 589.5,67.46 589.5,82.58 C589.5,87.44 587.88,88.52 585,88.52 C581.4,88.52 580.5,86.54 580.5,84.74 Z M611.28,181.04 L611.28,57.2 C611.28,54.5 613.62,53.42 615.78,53.42 C618.12,53.42 620.28,54.5 620.28,57.2 L620.28,124.52 L675.54,54.86 C676.26,53.78 677.52,53.42 678.6,53.42 C680.94,53.42 683.46,55.76 683.46,58.1 C683.46,58.82 683.28,59.72 682.56,60.26 L642.42,110.3 L687.78,178.7 C688.32,179.24 688.5,179.96 688.5,180.68 C688.5,183.02 685.98,185.18 683.46,185.18 C682.2,185.18 680.94,184.46 680.04,183.02 L636.48,117.86 L620.28,138.02 L620.28,181.04 C620.28,183.74 618.12,185 615.78,185 C613.62,185 611.28,183.74 611.28,181.04 Z M703.8,181.04 L703.8,57.2 C703.8,54.5 706.14,53.42 708.3,53.42 C710.64,53.42 712.8,54.5 712.8,57.2 L712.8,181.04 C712.8,183.74 710.64,185 708.3,185 C706.14,185 703.8,183.74 703.8,181.04 Z M809.64,185 C806.94,185 804.78,181.4 803.16,178.34 L750.24,74.66 L750.24,181.04 C750.24,183.74 748.08,185 745.74,185 C743.58,185 741.24,183.74 741.24,181.04 L741.24,57.2 C741.24,54.32 743.4,53.42 745.74,53.42 C748.98,53.42 751.5,57.74 753.12,60.8 L805.14,163.58 L805.14,57.2 C805.14,54.5 807.48,53.42 809.64,53.42 C811.98,53.42 814.14,54.5 814.14,57.2 L814.14,181.04 C814.14,183.74 811.98,185 809.64,185 Z M904.86,84.74 C902.88,69.62 893.34,62.06 877.5,62.06 C860.4,62.06 850.32,71.24 850.32,91.22 L850.32,148.28 C850.32,168.26 860.4,177.44 877.5,177.44 C894.6,177.44 904.86,168.26 904.86,148.28 L904.86,124.16 L878.22,124.16 C875.88,124.16 874.62,122 874.62,120.02 C874.62,118.04 875.88,115.88 878.22,115.88 L910.08,115.88 C912.42,115.88 913.86,117.86 913.86,120.02 L913.86,148.28 C913.86,175.82 897.84,186.08 877.5,186.08 C856.98,186.08 841.32,175.82 841.32,148.28 L841.32,91.22 C841.32,63.68 857.16,53.42 877.32,53.42 C900,53.42 913.86,66.56 913.86,83.84 C913.86,87.26 911.88,88.52 909.36,88.52 C907.02,88.52 905.04,87.44 904.86,84.74 Z" id="GET-HACKING-Copy" fill="#D0021B"></path>
            <path d="M19.88,222.52 L51.56,222.52 C52.68,222.52 53.24,223.4 53.24,224.36 C53.24,225.32 52.76,226.36 51.56,226.36 L37.8,226.36 L37.8,279.24 C37.8,280.44 36.76,281 35.8,281 C34.76,281 33.8,280.44 33.8,279.24 L33.8,226.36 L19.88,226.36 C18.84,226.36 18.2,225.4 18.2,224.44 C18.2,223.48 18.84,222.52 19.88,222.52 Z M63.64,257.4 L63.64,279.24 C63.64,280.12 62.76,281 61.64,281 C60.52,281 59.72,280.12 59.72,279.24 L59.72,221.4 C59.72,220.44 60.52,219.72 61.64,219.72 C62.76,219.72 63.64,220.44 63.64,221.4 L63.64,248.84 C65.32,245.72 68.92,242.76 74.28,242.76 C82.04,242.76 88.6,249.32 88.6,257.4 L88.6,279.24 C88.6,280.44 87.56,281 86.6,281 C85.64,281 84.68,280.44 84.68,279.24 L84.68,257.4 C84.68,251.88 79.8,246.44 73.96,246.44 C68.84,246.44 63.64,250.52 63.64,257.4 Z M112.04,242.76 C119.8,242.76 126.6,248.84 126.6,257.24 C126.6,263.24 123.24,263.4 119.8,263.4 L101.24,263.4 L101.24,266.76 C101.24,273.64 106.68,277.88 114.12,277.88 C120.68,277.88 121.96,274.68 123.64,274.68 C124.6,274.68 125.48,275.8 125.48,276.6 C125.48,278.28 121.08,281.48 113.96,281.48 C104.2,281.48 97.32,275.56 97.32,266.68 L97.32,257.16 C97.32,249.32 103.96,242.76 112.04,242.76 Z M101.24,260.12 L118.28,260.12 C121.88,260.12 122.76,259.64 122.76,257.24 C122.76,251.8 118.44,246.28 112.04,246.28 C105.96,246.28 101.24,251.16 101.24,256.84 L101.24,260.12 Z M160.44,277.96 C166.84,277.96 169.24,275.08 169.24,271.8 C169.24,260.2 149.32,266.6 149.32,253.32 C149.32,248.44 152.84,242.76 161.48,242.76 C166.44,242.76 171.72,244.6 171.72,246.36 C171.72,247.08 170.92,248.44 169.96,248.44 C168.84,248.44 166.36,246.28 161.56,246.28 C155.24,246.28 153,250.28 153,253.24 C153,263.16 173,256.92 173,271.56 C173,277.72 168.44,281.48 160.52,281.48 C153.16,281.48 148.44,278.2 148.44,276.04 C148.44,275.24 149.16,274.2 149.88,274.2 C151.48,274.2 153.08,277.96 160.44,277.96 Z M184.92,246.68 L184.92,269.56 C184.92,275.24 187.08,277.32 193.16,277.32 L195.16,277.32 C196.28,277.32 197,278.12 197,279.16 C197,280.12 196.28,281 195.16,281 L193.16,281 C185.24,281 181,277.56 181,269.56 L181,226.6 C181,225.64 182.04,224.92 182.92,224.92 C183.96,224.92 184.92,225.64 184.92,226.6 L184.92,243.24 L195.56,243.24 C196.36,243.24 197.08,244.04 197.08,245 C197.08,245.88 196.36,246.68 195.56,246.68 L184.92,246.68 Z M216.2,242.76 C224.04,242.76 230.92,249.32 230.92,257.4 L230.92,266.68 C230.92,274.44 224.04,281.48 216.2,281.48 C208.36,281.48 201.56,274.52 201.56,266.68 L201.56,257.4 C201.56,249.56 208.2,242.76 216.2,242.76 Z M227,266.68 L227,257.4 C227,251.88 222.2,246.44 216.2,246.44 C210.2,246.44 205.48,251.88 205.48,257.4 L205.48,266.68 C205.48,272.36 210.2,277.8 216.2,277.8 C222.12,277.8 227,272.36 227,266.68 Z M257.56,246.44 L254.68,246.44 C249.24,246.44 243.88,250.84 243.88,258.12 L243.88,279.24 C243.88,280.12 243,281 241.88,281 C240.76,281 239.96,280.12 239.96,279.24 L239.96,244.84 C239.96,243.88 240.76,243.24 241.88,243.24 C242.92,243.24 243.8,243.88 243.8,244.84 L243.8,248.92 C245.56,245.8 249.32,242.76 254.68,242.76 L257.56,242.76 C258.52,242.76 259.32,243.56 259.32,244.6 C259.32,245.64 258.52,246.44 257.56,246.44 Z M277,242.76 C284.76,242.76 291.56,248.84 291.56,257.24 C291.56,263.24 288.2,263.4 284.76,263.4 L266.2,263.4 L266.2,266.76 C266.2,273.64 271.64,277.88 279.08,277.88 C285.64,277.88 286.92,274.68 288.6,274.68 C289.56,274.68 290.44,275.8 290.44,276.6 C290.44,278.28 286.04,281.48 278.92,281.48 C269.16,281.48 262.28,275.56 262.28,266.68 L262.28,257.16 C262.28,249.32 268.92,242.76 277,242.76 Z M266.2,260.12 L283.24,260.12 C286.84,260.12 287.72,259.64 287.72,257.24 C287.72,251.8 283.4,246.28 277,246.28 C270.92,246.28 266.2,251.16 266.2,256.84 L266.2,260.12 Z M319.72,234.04 L319.72,243.24 L331.56,243.24 C332.52,243.24 333.24,244.04 333.24,244.92 C333.24,245.88 332.52,246.68 331.56,246.68 L319.72,246.68 L319.72,279.32 C319.72,280.36 318.76,281 317.64,281 C316.6,281 315.8,280.36 315.8,279.32 L315.8,234.2 C315.8,226.36 322.36,219.72 330.04,219.72 L331.4,219.72 C332.44,219.72 333.24,220.6 333.24,221.64 C333.24,222.68 332.44,223.4 331.4,223.4 L330.36,223.4 C324.28,223.4 319.8,228.44 319.72,234.04 Z M351.08,242.76 C358.92,242.76 365.8,249.32 365.8,257.4 L365.8,266.68 C365.8,274.44 358.92,281.48 351.08,281.48 C343.24,281.48 336.44,274.52 336.44,266.68 L336.44,257.4 C336.44,249.56 343.08,242.76 351.08,242.76 Z M361.88,266.68 L361.88,257.4 C361.88,251.88 357.08,246.44 351.08,246.44 C345.08,246.44 340.36,251.88 340.36,257.4 L340.36,266.68 C340.36,272.36 345.08,277.8 351.08,277.8 C357,277.8 361.88,272.36 361.88,266.68 Z M392.44,246.44 L389.56,246.44 C384.12,246.44 378.76,250.84 378.76,258.12 L378.76,279.24 C378.76,280.12 377.88,281 376.76,281 C375.64,281 374.84,280.12 374.84,279.24 L374.84,244.84 C374.84,243.88 375.64,243.24 376.76,243.24 C377.8,243.24 378.68,243.88 378.68,244.84 L378.68,248.92 C380.44,245.8 384.2,242.76 389.56,242.76 L392.44,242.76 C393.4,242.76 394.2,243.56 394.2,244.6 C394.2,245.64 393.4,246.44 392.44,246.44 Z M430.04,281.48 C419.8,281.48 415,275.16 415,266.68 L415,257.56 C415,249.24 419.72,242.76 430.04,242.76 C436.6,242.76 440.84,245.8 440.84,247.64 C440.84,248.6 440.04,249.56 439,249.56 C437.64,249.56 436.2,246.44 430.12,246.44 C422.84,246.44 418.92,250.68 418.92,257.56 L418.92,266.68 C418.92,273.56 422.76,277.8 430.2,277.8 C436.68,277.8 438.04,274.6 439.56,274.6 C440.52,274.6 441.32,275.64 441.32,276.52 C441.32,278.44 437,281.48 430.04,281.48 Z M463.08,281.48 C455,281.48 448.44,274.6 448.44,266.84 L448.44,244.92 C448.44,244.04 449.32,243.24 450.44,243.24 C451.4,243.24 452.36,244.04 452.36,244.92 L452.36,266.84 C452.36,272.44 457.08,277.8 463.08,277.8 C469.08,277.8 473.8,272.52 473.8,266.84 L473.8,244.84 C473.8,243.96 474.76,243.24 475.8,243.24 C476.92,243.24 477.72,243.96 477.72,244.84 L477.72,266.84 C477.72,274.68 471.08,281.48 463.08,281.48 Z M505.48,246.44 L502.6,246.44 C497.16,246.44 491.8,250.84 491.8,258.12 L491.8,279.24 C491.8,280.12 490.92,281 489.8,281 C488.68,281 487.88,280.12 487.88,279.24 L487.88,244.84 C487.88,243.88 488.68,243.24 489.8,243.24 C490.84,243.24 491.72,243.88 491.72,244.84 L491.72,248.92 C493.48,245.8 497.24,242.76 502.6,242.76 L505.48,242.76 C506.44,242.76 507.24,243.56 507.24,244.6 C507.24,245.64 506.44,246.44 505.48,246.44 Z M515.32,243.24 C516.44,243.24 517.32,243.88 517.32,244.84 L517.32,279.24 C517.32,280.12 516.44,281 515.32,281 C514.2,281 513.4,280.12 513.4,279.24 L513.4,244.84 C513.4,243.88 514.2,243.24 515.32,243.24 Z M515.32,225.56 C516.92,225.56 518.28,226.84 518.28,228.36 C518.28,229.96 516.92,231.32 515.32,231.32 C513.56,231.32 512.28,229.96 512.28,228.36 C512.28,226.84 513.56,225.56 515.32,225.56 Z M541,242.76 C548.84,242.76 555.72,249.32 555.72,257.4 L555.72,266.68 C555.72,274.44 548.84,281.48 541,281.48 C533.16,281.48 526.36,274.52 526.36,266.68 L526.36,257.4 C526.36,249.56 533,242.76 541,242.76 Z M551.8,266.68 L551.8,257.4 C551.8,251.88 547,246.44 541,246.44 C535,246.44 530.28,251.88 530.28,257.4 L530.28,266.68 C530.28,272.36 535,277.8 541,277.8 C546.92,277.8 551.8,272.36 551.8,266.68 Z M579,281.48 C570.92,281.48 564.36,274.6 564.36,266.84 L564.36,244.92 C564.36,244.04 565.24,243.24 566.36,243.24 C567.32,243.24 568.28,244.04 568.28,244.92 L568.28,266.84 C568.28,272.44 573,277.8 579,277.8 C585,277.8 589.72,272.52 589.72,266.84 L589.72,244.84 C589.72,243.96 590.68,243.24 591.72,243.24 C592.84,243.24 593.64,243.96 593.64,244.84 L593.64,266.84 C593.64,274.68 587,281.48 579,281.48 Z M613.4,277.96 C619.8,277.96 622.2,275.08 622.2,271.8 C622.2,260.2 602.28,266.6 602.28,253.32 C602.28,248.44 605.8,242.76 614.44,242.76 C619.4,242.76 624.68,244.6 624.68,246.36 C624.68,247.08 623.88,248.44 622.92,248.44 C621.8,248.44 619.32,246.28 614.52,246.28 C608.2,246.28 605.96,250.28 605.96,253.24 C605.96,263.16 625.96,256.92 625.96,271.56 C625.96,277.72 621.4,281.48 613.48,281.48 C606.12,281.48 601.4,278.2 601.4,276.04 C601.4,275.24 602.12,274.2 602.84,274.2 C604.44,274.2 606.04,277.96 613.4,277.96 Z M653.88,246.68 L653.88,269.56 C653.88,275.24 656.04,277.32 662.12,277.32 L664.12,277.32 C665.24,277.32 665.96,278.12 665.96,279.16 C665.96,280.12 665.24,281 664.12,281 L662.12,281 C654.2,281 649.96,277.56 649.96,269.56 L649.96,226.6 C649.96,225.64 651,224.92 651.88,224.92 C652.92,224.92 653.88,225.64 653.88,226.6 L653.88,243.24 L664.52,243.24 C665.32,243.24 666.04,244.04 666.04,245 C666.04,245.88 665.32,246.68 664.52,246.68 L653.88,246.68 Z M674.76,243.24 C675.88,243.24 676.76,243.88 676.76,244.84 L676.76,279.24 C676.76,280.12 675.88,281 674.76,281 C673.64,281 672.84,280.12 672.84,279.24 L672.84,244.84 C672.84,243.88 673.64,243.24 674.76,243.24 Z M674.76,225.56 C676.36,225.56 677.72,226.84 677.72,228.36 C677.72,229.96 676.36,231.32 674.76,231.32 C673,231.32 671.72,229.96 671.72,228.36 C671.72,226.84 673,225.56 674.76,225.56 Z M691.24,257.4 L691.24,279.24 C691.24,280.12 690.36,281 689.24,281 C688.12,281 687.32,280.12 687.32,279.24 L687.32,244.84 C687.32,243.88 688.12,243.24 689.24,243.24 C690.28,243.24 691.16,243.88 691.16,244.84 L691.16,248.84 C692.84,245.72 696.52,242.76 701.88,242.76 C709.64,242.76 716.2,249.32 716.2,257.4 L716.2,279.24 C716.2,280.44 715.16,281 714.2,281 C713.24,281 712.28,280.44 712.28,279.24 L712.28,257.4 C712.28,251.88 707.4,246.44 701.56,246.44 C696.44,246.44 691.24,250.52 691.24,257.4 Z M753.4,246.28 L741,257.08 L755.4,278.2 C755.56,278.44 755.64,278.84 755.64,279.08 C755.64,280.04 754.68,281.08 753.64,281.08 C753.16,281.08 752.68,280.84 752.28,280.28 L738.2,259.64 L730.28,266.52 L730.28,279.24 C730.28,280.12 729.4,281 728.28,281 C727.16,281 726.36,280.12 726.36,279.24 L726.36,221.4 C726.36,220.44 727.16,219.72 728.28,219.72 C729.4,219.72 730.28,220.44 730.28,221.4 L730.28,261.64 L750.92,243.56 C751.16,243.32 751.48,243.16 751.88,243.16 C752.84,243.16 753.96,243.8 753.96,245 C753.96,245.4 753.8,245.96 753.4,246.28 Z M774.12,242.76 C781.88,242.76 788.68,248.84 788.68,257.24 C788.68,263.24 785.32,263.4 781.88,263.4 L763.32,263.4 L763.32,266.76 C763.32,273.64 768.76,277.88 776.2,277.88 C782.76,277.88 784.04,274.68 785.72,274.68 C786.68,274.68 787.56,275.8 787.56,276.6 C787.56,278.28 783.16,281.48 776.04,281.48 C766.28,281.48 759.4,275.56 759.4,266.68 L759.4,257.16 C759.4,249.32 766.04,242.76 774.12,242.76 Z M763.32,260.12 L780.36,260.12 C783.96,260.12 784.84,259.64 784.84,257.24 C784.84,251.8 780.52,246.28 774.12,246.28 C768.04,246.28 763.32,251.16 763.32,256.84 L763.32,260.12 Z M814.52,246.44 L811.64,246.44 C806.2,246.44 800.84,250.84 800.84,258.12 L800.84,279.24 C800.84,280.12 799.96,281 798.84,281 C797.72,281 796.92,280.12 796.92,279.24 L796.92,244.84 C796.92,243.88 797.72,243.24 798.84,243.24 C799.88,243.24 800.76,243.88 800.76,244.84 L800.76,248.92 C802.52,245.8 806.28,242.76 811.64,242.76 L814.52,242.76 C815.48,242.76 816.28,243.56 816.28,244.6 C816.28,245.64 815.48,246.44 814.52,246.44 Z M833.96,242.76 C841.72,242.76 848.52,248.84 848.52,257.24 C848.52,263.24 845.16,263.4 841.72,263.4 L823.16,263.4 L823.16,266.76 C823.16,273.64 828.6,277.88 836.04,277.88 C842.6,277.88 843.88,274.68 845.56,274.68 C846.52,274.68 847.4,275.8 847.4,276.6 C847.4,278.28 843,281.48 835.88,281.48 C826.12,281.48 819.24,275.56 819.24,266.68 L819.24,257.16 C819.24,249.32 825.88,242.76 833.96,242.76 Z M823.16,260.12 L840.2,260.12 C843.8,260.12 844.68,259.64 844.68,257.24 C844.68,251.8 840.36,246.28 833.96,246.28 C827.88,246.28 823.16,251.16 823.16,256.84 L823.16,260.12 Z M874.36,246.44 L871.48,246.44 C866.04,246.44 860.68,250.84 860.68,258.12 L860.68,279.24 C860.68,280.12 859.8,281 858.68,281 C857.56,281 856.76,280.12 856.76,279.24 L856.76,244.84 C856.76,243.88 857.56,243.24 858.68,243.24 C859.72,243.24 860.6,243.88 860.6,244.84 L860.6,248.92 C862.36,245.8 866.12,242.76 871.48,242.76 L874.36,242.76 C875.32,242.76 876.12,243.56 876.12,244.6 C876.12,245.64 875.32,246.44 874.36,246.44 Z M891.48,277.96 C897.88,277.96 900.28,275.08 900.28,271.8 C900.28,260.2 880.36,266.6 880.36,253.32 C880.36,248.44 883.88,242.76 892.52,242.76 C897.48,242.76 902.76,244.6 902.76,246.36 C902.76,247.08 901.96,248.44 901,248.44 C899.88,248.44 897.4,246.28 892.6,246.28 C886.28,246.28 884.04,250.28 884.04,253.24 C884.04,263.16 904.04,256.92 904.04,271.56 C904.04,277.72 899.48,281.48 891.56,281.48 C884.2,281.48 879.48,278.2 879.48,276.04 C879.48,275.24 880.2,274.2 880.92,274.2 C882.52,274.2 884.12,277.96 891.48,277.96 Z M913.56,274.92 C915.24,274.92 916.76,276.44 916.76,278.2 C916.76,279.96 915.24,281.48 913.56,281.48 C911.64,281.48 910.28,279.96 910.28,278.2 C910.28,276.44 911.64,274.92 913.56,274.92 Z" id="The-store-for-curiou" fill="#848484"></path>
        </g>
    </g>
</svg>